<?xml version="1.0" standalone="no"?>
<!DOCTYPE svg PUBLIC "-//W3C//DTD SVG 20010904//EN"
 "http://www.w3.org/TR/2001/REC-SVG-20010904/DTD/svg10.dtd">
<svg version="1.0" xmlns="http://www.w3.org/2000/svg"
 width="123.000000pt" height="123.000000pt" viewBox="0 0 123.000000 123.000000"
 preserveAspectRatio="xMidYMid meet">
<metadata>
Created by potrace 1.14, written by Peter Selinger 2001-2017
</metadata>
<g transform="translate(0.000000,123.000000) scale(0.100000,-0.100000)"
fill="#000000" stroke="none">
<path d="M912 1220 c-18 -4 -56 -22 -85 -40 l-52 -33 -230 1 c-230 1 -315 -7
-369 -35 -39 -20 -116 -93 -116 -109 0 -8 -4 -14 -9 -14 -5 0 -18 -21 -28 -47
-16 -43 -18 -82 -18 -368 0 -290 2 -324 19 -368 10 -26 23 -47 27 -47 5 0 9
-6 9 -14 0 -16 77 -89 116 -109 57 -29 139 -36 424 -33 297 2 347 8 389 48 11
10 24 18 30 18 17 0 74 73 100 130 26 55 26 57 28 323 l2 268 25 30 c33 39 56
117 51 171 -7 64 -15 98 -26 98 -5 0 -9 6 -9 14 0 20 -50 77 -61 70 -5 -3 -9
0 -9 6 0 30 -136 56 -208 40z m127 -105 c68 -34 103 -112 82 -177 -10 -29 -71
-110 -71 -93 0 3 -10 0 -22 -6 -70 -38 -173 18 -197 107 -32 115 103 224 208
169z m-309 -172 c0 -35 34 -111 63 -141 28 -30 116 -72 150 -72 l27 0 0 -208
c0 -201 -1 -210 -25 -258 -41 -82 -58 -86 -388 -82 -260 3 -277 4 -303 24 -15
11 -37 33 -48 48 -20 26 -21 43 -24 294 -2 147 0 281 3 299 7 40 49 91 90 109
22 10 89 13 243 14 l212 0 0 -27z"/>
</g>
</svg>
